<svg width="18" height="23" viewBox="0 0 18 23" fill="none" xmlns="http://www.w3.org/2000/svg">
<g clip-path="url(#clip0_223_26)">
<path fill-rule="evenodd" clip-rule="evenodd" d="M8.99994 0C13.9706 0 18 3.92075 18 8.75742C18 13.5941 8.99994 23 8.99994 23C8.99994 23 0 13.5939 0 8.75742C0 3.92098 4.02938 0 8.99994 0ZM8.99994 13.0532C11.502 13.0532 13.5304 11.0797 13.5304 8.64501C13.5304 6.21036 11.502 4.23679 8.99994 4.23679C6.49784 4.23679 4.46958 6.21036 4.46958 8.64501C4.46958 11.0797 6.49795 13.0532 8.99994 13.0532Z" fill="#FE9800"/>
</g>
<defs>
<clipPath id="clip0_223_26">
<rect width="18" height="23" fill="white" transform="matrix(-1 0 0 1 18 0)"/>
</clipPath>
</defs>
</svg>
