<svg width="79" height="16" viewBox="0 0 79 16" fill="none" xmlns="http://www.w3.org/2000/svg">
<path d="M1.7 15C1.38 15 1.13333 14.9133 0.96 14.74C0.786667 14.5667 0.7 14.32 0.7 14V1.9C0.7 1.58 0.786667 1.33333 0.96 1.16C1.13333 0.986666 1.38 0.899999 1.7 0.899999H5.56C7.86667 0.899999 9.64 1.50667 10.88 2.72C12.1333 3.92 12.76 5.66 12.76 7.94C12.76 9.07333 12.6 10.08 12.28 10.96C11.96 11.84 11.4933 12.58 10.88 13.18C10.2667 13.7667 9.51333 14.22 8.62 14.54C7.74 14.8467 6.72 15 5.56 15H1.7ZM2.56 13.42H5.44C6.34667 13.42 7.13333 13.3067 7.8 13.08C8.46667 12.8533 9.02 12.5133 9.46 12.06C9.91333 11.6067 10.2533 11.04 10.48 10.36C10.7067 9.66667 10.82 8.86 10.82 7.94C10.82 6.11333 10.3667 4.74667 9.46 3.84C8.56667 2.93333 7.22667 2.48 5.44 2.48H2.56V13.42ZM19.9014 15.18C18.8481 15.18 17.9414 14.98 17.1814 14.58C16.4347 14.1667 15.8547 13.5867 15.4414 12.84C15.0281 12.08 14.8214 11.1867 14.8214 10.16C14.8214 9.14667 15.0214 8.26 15.4214 7.5C15.8347 6.74 16.3947 6.14667 17.1014 5.72C17.8214 5.29333 18.6414 5.08 19.5614 5.08C20.2147 5.08 20.8014 5.19333 21.3214 5.42C21.8547 5.63333 22.3081 5.94667 22.6814 6.36C23.0547 6.77333 23.3347 7.28 23.5214 7.88C23.7214 8.46667 23.8214 9.13333 23.8214 9.88C23.8214 10.0933 23.7547 10.26 23.6214 10.38C23.5014 10.4867 23.3214 10.54 23.0814 10.54H16.2414V9.38H22.6214L22.2814 9.66C22.2814 8.96667 22.1747 8.38 21.9614 7.9C21.7614 7.40667 21.4614 7.03333 21.0614 6.78C20.6747 6.52667 20.1881 6.4 19.6014 6.4C18.9614 6.4 18.4147 6.55333 17.9614 6.86C17.5081 7.15333 17.1614 7.57333 16.9214 8.12C16.6814 8.65333 16.5614 9.27333 16.5614 9.98V10.1C16.5614 11.3 16.8481 12.2067 17.4214 12.82C17.9947 13.4333 18.8214 13.74 19.9014 13.74C20.3281 13.74 20.7614 13.6867 21.2014 13.58C21.6547 13.4733 22.0881 13.28 22.5014 13C22.7014 12.88 22.8814 12.8267 23.0414 12.84C23.2147 12.84 23.3547 12.8933 23.4614 13C23.5681 13.0933 23.6347 13.2133 23.6614 13.36C23.6881 13.4933 23.6681 13.64 23.6014 13.8C23.5347 13.96 23.4081 14.1 23.2214 14.22C22.7814 14.5267 22.2547 14.7667 21.6414 14.94C21.0414 15.1 20.4614 15.18 19.9014 15.18ZM29.145 15.18C28.145 15.18 27.385 14.8867 26.865 14.3C26.345 13.7 26.085 12.84 26.085 11.72V1.68C26.085 1.37333 26.165 1.14667 26.325 0.999999C26.485 0.84 26.705 0.76 26.985 0.76C27.2783 0.76 27.505 0.84 27.665 0.999999C27.825 1.14667 27.905 1.37333 27.905 1.68V11.58C27.905 12.2733 28.045 12.7933 28.325 13.14C28.6183 13.4733 29.0317 13.64 29.565 13.64C29.685 13.64 29.7917 13.64 29.885 13.64C29.9783 13.6267 30.0717 13.6133 30.165 13.6C30.3117 13.5867 30.4183 13.6267 30.485 13.72C30.5517 13.8133 30.585 14 30.585 14.28C30.585 14.5333 30.525 14.7333 30.405 14.88C30.2983 15.0133 30.1183 15.1 29.865 15.14C29.745 15.1533 29.625 15.16 29.505 15.16C29.385 15.1733 29.265 15.18 29.145 15.18ZM33.0006 15.1C32.7206 15.1 32.5006 15.0133 32.3406 14.84C32.1806 14.6667 32.1006 14.4267 32.1006 14.12V6.14C32.1006 5.82 32.1806 5.58 32.3406 5.42C32.5006 5.24667 32.7206 5.16 33.0006 5.16C33.294 5.16 33.5206 5.24667 33.6806 5.42C33.8406 5.58 33.9206 5.82 33.9206 6.14V14.12C33.9206 14.4267 33.8406 14.6667 33.6806 14.84C33.534 15.0133 33.3073 15.1 33.0006 15.1ZM33.0006 3C32.6406 3 32.354 2.90667 32.1406 2.72C31.9406 2.52 31.8406 2.26 31.8406 1.94C31.8406 1.59333 31.9406 1.33333 32.1406 1.16C32.354 0.973333 32.6406 0.879999 33.0006 0.879999C33.3873 0.879999 33.674 0.973333 33.8606 1.16C34.0606 1.33333 34.1606 1.59333 34.1606 1.94C34.1606 2.26 34.0606 2.52 33.8606 2.72C33.674 2.90667 33.3873 3 33.0006 3ZM40.5467 15.14C40.2934 15.14 40.0734 15.0733 39.8867 14.94C39.7001 14.8067 39.5401 14.5933 39.4067 14.3L36.0067 6.38C35.9134 6.15333 35.8801 5.94667 35.9067 5.76C35.9334 5.57333 36.0201 5.42 36.1667 5.3C36.3267 5.18 36.5401 5.12 36.8067 5.12C37.0334 5.12 37.2134 5.17333 37.3467 5.28C37.4801 5.38667 37.6067 5.57333 37.7267 5.84L40.8667 13.58H40.3067L43.5267 5.84C43.6334 5.57333 43.7534 5.38667 43.8867 5.28C44.0334 5.17333 44.2334 5.12 44.4867 5.12C44.7134 5.12 44.8867 5.18 45.0067 5.3C45.1401 5.42 45.2201 5.57333 45.2467 5.76C45.2734 5.94667 45.2334 6.14667 45.1267 6.36L41.7067 14.3C41.5867 14.5933 41.4267 14.8067 41.2267 14.94C41.0401 15.0733 40.8134 15.14 40.5467 15.14ZM51.542 15.18C50.4887 15.18 49.582 14.98 48.822 14.58C48.0754 14.1667 47.4954 13.5867 47.082 12.84C46.6687 12.08 46.462 11.1867 46.462 10.16C46.462 9.14667 46.662 8.26 47.062 7.5C47.4754 6.74 48.0354 6.14667 48.742 5.72C49.462 5.29333 50.282 5.08 51.202 5.08C51.8554 5.08 52.442 5.19333 52.962 5.42C53.4954 5.63333 53.9487 5.94667 54.322 6.36C54.6954 6.77333 54.9754 7.28 55.162 7.88C55.362 8.46667 55.462 9.13333 55.462 9.88C55.462 10.0933 55.3954 10.26 55.262 10.38C55.142 10.4867 54.962 10.54 54.722 10.54H47.882V9.38H54.262L53.922 9.66C53.922 8.96667 53.8154 8.38 53.602 7.9C53.402 7.40667 53.102 7.03333 52.702 6.78C52.3154 6.52667 51.8287 6.4 51.242 6.4C50.602 6.4 50.0554 6.55333 49.602 6.86C49.1487 7.15333 48.802 7.57333 48.562 8.12C48.322 8.65333 48.202 9.27333 48.202 9.98V10.1C48.202 11.3 48.4887 12.2067 49.062 12.82C49.6354 13.4333 50.462 13.74 51.542 13.74C51.9687 13.74 52.402 13.6867 52.842 13.58C53.2954 13.4733 53.7287 13.28 54.142 13C54.342 12.88 54.522 12.8267 54.682 12.84C54.8554 12.84 54.9954 12.8933 55.102 13C55.2087 13.0933 55.2754 13.2133 55.302 13.36C55.3287 13.4933 55.3087 13.64 55.242 13.8C55.1754 13.96 55.0487 14.1 54.862 14.22C54.422 14.5267 53.8954 14.7667 53.282 14.94C52.682 15.1 52.102 15.18 51.542 15.18ZM58.6656 15.14C58.359 15.14 58.1256 15.06 57.9656 14.9C57.8056 14.74 57.7256 14.5067 57.7256 14.2V6.04C57.7256 5.73333 57.8056 5.50667 57.9656 5.36C58.1256 5.2 58.3456 5.12 58.6256 5.12C58.9056 5.12 59.119 5.2 59.2656 5.36C59.4256 5.50667 59.5056 5.73333 59.5056 6.04V7.58H59.3056C59.519 6.78 59.919 6.17333 60.5056 5.76C61.0923 5.34667 61.8323 5.11333 62.7256 5.06C62.939 5.04667 63.1123 5.1 63.2456 5.22C63.379 5.32667 63.4523 5.51333 63.4656 5.78C63.479 6.03333 63.419 6.24 63.2856 6.4C63.1523 6.54667 62.9456 6.63333 62.6656 6.66L62.3056 6.68C61.4256 6.77333 60.7456 7.06 60.2656 7.54C59.799 8.02 59.5656 8.68 59.5656 9.52V14.2C59.5656 14.5067 59.4856 14.74 59.3256 14.9C59.179 15.06 58.959 15.14 58.6656 15.14Z" fill="white"/>
<path d="M65.9303 15.1C65.6503 15.1 65.4303 15.0133 65.2703 14.84C65.1103 14.6667 65.0303 14.4267 65.0303 14.12V6.14C65.0303 5.82 65.1103 5.58 65.2703 5.42C65.4303 5.24667 65.6503 5.16 65.9303 5.16C66.2236 5.16 66.4503 5.24667 66.6103 5.42C66.7703 5.58 66.8503 5.82 66.8503 6.14V14.12C66.8503 14.4267 66.7703 14.6667 66.6103 14.84C66.4636 15.0133 66.237 15.1 65.9303 15.1ZM65.9303 3C65.5703 3 65.2836 2.90667 65.0703 2.72C64.8703 2.52 64.7703 2.26 64.7703 1.94C64.7703 1.59333 64.8703 1.33333 65.0703 1.16C65.2836 0.973333 65.5703 0.879999 65.9303 0.879999C66.317 0.879999 66.6036 0.973333 66.7903 1.16C66.9903 1.33333 67.0903 1.59333 67.0903 1.94C67.0903 2.26 66.9903 2.52 66.7903 2.72C66.6036 2.90667 66.317 3 65.9303 3ZM73.9164 15.18C72.9564 15.18 72.1231 14.9733 71.4164 14.56C70.7097 14.1467 70.1631 13.56 69.7764 12.8C69.3897 12.04 69.1964 11.1467 69.1964 10.12C69.1964 9.34667 69.3031 8.65333 69.5164 8.04C69.7431 7.41333 70.0631 6.88 70.4764 6.44C70.8897 6 71.3831 5.66667 71.9564 5.44C72.5431 5.2 73.1964 5.08 73.9164 5.08C74.8764 5.08 75.7097 5.28667 76.4164 5.7C77.1231 6.11333 77.6697 6.7 78.0564 7.46C78.4431 8.20667 78.6364 9.09333 78.6364 10.12C78.6364 10.8933 78.5231 11.5933 78.2964 12.22C78.0831 12.8467 77.7697 13.38 77.3564 13.82C76.9431 14.26 76.4431 14.6 75.8564 14.84C75.2831 15.0667 74.6364 15.18 73.9164 15.18ZM73.9164 13.74C74.5031 13.74 75.0097 13.6 75.4364 13.32C75.8764 13.04 76.2097 12.6333 76.4364 12.1C76.6764 11.5667 76.7964 10.9067 76.7964 10.12C76.7964 8.94667 76.5364 8.05333 76.0164 7.44C75.4964 6.82667 74.7964 6.52 73.9164 6.52C73.3431 6.52 72.8364 6.66 72.3964 6.94C71.9697 7.20667 71.6364 7.60667 71.3964 8.14C71.1564 8.67333 71.0364 9.33333 71.0364 10.12C71.0364 11.2933 71.2964 12.1933 71.8164 12.82C72.3497 13.4333 73.0497 13.74 73.9164 13.74Z" fill="#FF9900"/>
</svg>
